HIERARCHY
ROOT Hips
{
	OFFSET 0.000000 0.000000 0.000000
	CHANNELS 6 Xposition Yposition Zposition Zrotation Yrotation Xrotation 
	JOINT LHipJoint
	{
		OFFSET 0.000000 0.000000 0.000000
		CHANNELS 3 Zrotation Yrotation Xrotation
		JOINT LeftUpLeg
		{
			OFFSET 1.363060 -1.794630 0.839290
			CHANNELS 3 Zrotation Yrotation Xrotation
			JOINT LeftLeg
			{
				OFFSET 2.448110 -6.726130 0.000000
				CHANNELS 3 Zrotation Yrotation Xrotation
				JOINT LeftFoot
				{
					OFFSET 2.562200 -7.039590 0.000000
					CHANNELS 3 Zrotation Yrotation Xrotation
					JOINT LeftToeBase
					{
						OFFSET 0.157640 -0.433110 2.322550
						CHANNELS 3 Zrotation Yrotation Xrotation
						End Site
						{
							OFFSET 0.000000 0.000000 0.000000
						}
					}
				}
			}
		}
	}
	JOINT RHipJoint
	{
		OFFSET 0.000000 0.000000 0.000000
		CHANNELS 3 Zrotation Yrotation Xrotation
		JOINT RightUpLeg
		{
			OFFSET -1.305520 -1.794630 0.839290
			CHANNELS 3 Zrotation Yrotation Xrotation
			JOINT RightLeg
			{
				OFFSET -2.542530 -6.985550 0.000000
				CHANNELS 3 Zrotation Yrotation Xrotation
				JOINT RightFoot
				{
					OFFSET -2.568260 -7.056230 0.000000
					CHANNELS 3 Zrotation Yrotation Xrotation
					JOINT RightToeBase
					{
						OFFSET -0.164730 -0.452590 2.363150
						CHANNELS 3 Zrotation Yrotation Xrotation
						End Site
						{
							OFFSET 0.000000 0.000000 0.000000
						}
					}
				}
			}
		}
	}
	JOINT LowerBack
	{
		OFFSET 0.000000 0.000000 0.000000
		CHANNELS 3 Zrotation Yrotation Xrotation
		JOINT Spine
		{
			OFFSET 0.028270 2.035590 -0.193380
			CHANNELS 3 Zrotation Yrotation Xrotation
			JOINT Spine1
			{
				OFFSET 0.056720 2.048850 -0.042750
				CHANNELS 3 Zrotation Yrotation Xrotation
				JOINT Neck
				{
					OFFSET 0.000000 0.000000 0.000000
					CHANNELS 3 Zrotation Yrotation Xrotation
					JOINT Neck1
					{
						OFFSET -0.054170 1.746240 0.172020
						CHANNELS 3 Zrotation Yrotation Xrotation
						JOINT Head
						{
							OFFSET 0.104070 1.761360 -0.123970
							CHANNELS 3 Zrotation Yrotation Xrotation
							End Site
							{
								OFFSET 0.000000 0.000000 0.000000
							}
						}
					}
				}
				JOINT LeftShoulder
				{
					OFFSET 0.000000 0.000000 0.000000
					CHANNELS 3 Zrotation Yrotation Xrotation
					JOINT LeftArm
					{
						OFFSET 3.362410 1.200890 -0.311210
						CHANNELS 3 Zrotation Yrotation Xrotation
						JOINT LeftForeArm
						{
							OFFSET 4.983000 -0.000000 -0.000000
							CHANNELS 3 Zrotation Yrotation Xrotation
							JOINT LeftHand
							{
								OFFSET 3.483560 -0.000000 -0.000000
								CHANNELS 3 Zrotation Yrotation Xrotation
								JOINT LeftFingerBase
								{
									OFFSET 0.000000 0.000000 0.000000
									CHANNELS 3 Zrotation Yrotation Xrotation
									JOINT LeftHandIndex1
									{
										OFFSET 0.715260 -0.000000 -0.000000
										CHANNELS 3 Zrotation Yrotation Xrotation
										End Site
										{
											OFFSET 0.000000 0.000000 0.000000
										}
									}
								}
								JOINT LThumb
								{
									OFFSET 0.000000 0.000000 0.000000
									CHANNELS 3 Zrotation Yrotation Xrotation
									End Site
									{
										OFFSET 0.000000 0.000000 0.000000
									}
								}
							}
						}
					}
				}
				JOINT RightShoulder
				{
					OFFSET 0.000000 0.000000 0.000000
					CHANNELS 3 Zrotation Yrotation Xrotation
					JOINT RightArm
					{
						OFFSET -3.136600 1.374050 -0.404650
						CHANNELS 3 Zrotation Yrotation Xrotation
						JOINT RightForeArm
						{
							OFFSET -5.241900 -0.000000 -0.000000
							CHANNELS 3 Zrotation Yrotation Xrotation
							JOINT RightHand
							{
								OFFSET -3.444170 -0.000000 -0.000000
								CHANNELS 3 Zrotation Yrotation Xrotation
								JOINT RightFingerBase
								{
									OFFSET 0.000000 0.000000 0.000000
									CHANNELS 3 Zrotation Yrotation Xrotation
									JOINT RightHandIndex1
									{
										OFFSET -0.622530 -0.000000 -0.000000
										CHANNELS 3 Zrotation Yrotation Xrotation
										End Site
										{
											OFFSET 0.000000 0.000000 0.000000
										}
									}
								}
								JOINT RThumb
								{
									OFFSET 0.000000 0.000000 0.000000
									CHANNELS 3 Zrotation Yrotation Xrotation
									End Site
									{
										OFFSET 0.000000 0.000000 0.000000
									}
								}
							}
						}
					}
				}
			}
		}
	}
}
MOTION
Frames: 12
Frame Time: 0.008333
17.777402 17.887490 22.691075 175.030667 -2.366944 -153.782981 9.904122 1.581640 -1.670737 -33.447113 -19.836968 -16.965144 -0.738942 4.919059 10.931251 -0.602481 -8.800328 -15.149370 2.873900 -10.488100 -30.572100 -13.959149 -3.068505 -1.683323 27.444402 17.146264 -17.267243 0.877424 -3.872661 8.759863 -0.936505 3.533895 -19.672721 -0.911900 6.084900 -17.031000 -8.889844 -1.540234 -27.667234 1.068540 -0.391828 -5.120422 1.397667 -1.647615 15.837276 -9.634721 -0.801186 -6.563647 11.270652 -2.684665 8.455519 1.611700 -1.015200 1.012600 15.722762 -1.680438 0.502249 -104.753784 -5.363085 17.752576 11.474620 -12.668447 -1.558781 -1.970241 1.093310 6.640886 23.075570 -10.937514 -5.441300 -7.125000 0.000000 0.000000 -1.406300 17.091700 0.931200 -10.798785 -0.522922 -0.146666 98.974889 0.489587 5.514621 -11.842817 21.429299 -2.927054 0.507068 4.135680 -0.964027 -12.109730 -52.643571 10.657800 7.125000 0.000000 0.000000 81.686000 -76.589500 -67.818600 
17.778603 17.887927 22.691511 175.038363 -2.347536 -153.802604 9.901597 1.581114 -1.667448 -33.428847 -19.888852 -16.906392 -0.741256 4.916578 10.933368 -0.587939 -8.750421 -15.200787 2.793200 -10.352500 -30.125800 -13.960808 -3.067647 -1.682607 27.461610 17.153816 -17.269865 0.876491 -3.884198 8.789532 -0.938063 3.545254 -19.688199 -0.971900 6.276400 -17.588500 -8.881375 -1.550712 -27.652437 1.077632 -0.412483 -5.124299 1.401001 -1.657574 15.821959 -9.638295 -0.810608 -6.560506 11.260745 -2.692863 8.509970 1.607700 -1.015000 1.030700 15.731032 -1.688307 0.495805 -104.841390 -5.439819 18.038730 11.544077 -12.774343 -1.587556 -1.947881 1.094098 6.349115 22.848043 -11.131458 -5.472900 -7.125000 0.000000 0.000000 -1.595600 16.890800 1.063600 -10.807672 -0.509228 -0.144472 98.958075 0.491438 5.738577 -11.922789 21.580010 -2.988688 0.583892 4.239136 -1.037596 -13.952901 -54.369959 12.532800 7.125000 0.000000 0.000000 89.807800 -77.163900 -76.632100 
17.779258 17.889238 22.691402 175.088749 -2.358118 -153.817579 9.895590 1.581557 -1.672934 -33.365470 -19.828862 -16.901851 -0.737713 4.928802 10.977711 -0.593837 -8.818827 -15.250555 2.797300 -10.359400 -30.148600 -13.963549 -3.066762 -1.679245 27.525316 17.184843 -17.262461 0.877417 -3.895034 8.813735 -0.942179 3.548375 -19.728454 -0.989900 6.332300 -17.751600 -8.818334 -1.559161 -27.672328 1.091353 -0.439856 -5.113810 1.393057 -1.669137 15.874902 -9.677764 -0.787604 -6.556041 11.302443 -2.671527 8.496295 1.631600 -1.005100 1.023900 15.736163 -1.712535 0.492654 -104.883882 -5.610447 18.515092 11.580070 -12.818916 -1.604069 -1.946804 1.105905 5.813505 22.761162 -11.452714 -5.606200 -7.125000 0.000000 0.000000 -1.682500 16.518500 1.135200 -10.811087 -0.499959 -0.139705 98.922492 0.623955 5.869643 -11.933976 21.626534 -3.022148 0.660402 4.330422 -1.060688 -15.787119 -55.818708 14.408100 7.125000 0.000000 0.000000 84.681200 77.509600 97.292600 
17.780897 17.890767 22.690419 175.181671 -2.444750 -153.885636 9.889705 1.588369 -1.674841 -33.245364 -19.760431 -16.854258 -0.732960 4.928780 10.998562 -0.608784 -8.877789 -15.186829 2.781200 -10.332100 -30.059100 -13.971608 -3.075656 -1.686818 27.705106 17.178192 -17.086944 0.884008 -3.841817 8.710192 -0.940014 3.461871 -19.672303 -0.975700 6.288200 -17.622800 -8.703291 -1.575595 -27.643107 1.115340 -0.492531 -5.094224 1.376622 -1.688757 15.952948 -9.739412 -0.750537 -6.609909 11.316946 -2.611868 8.491898 1.653200 -0.974900 1.031500 15.736922 -1.736869 0.489621 -104.947763 -5.835816 18.848852 11.610310 -12.847141 -1.614518 -1.950414 1.097796 5.480593 22.733734 -11.499754 -5.621000 -7.125000 0.000000 0.000000 -1.706200 16.466900 1.153100 -10.810093 -0.478934 -0.132221 98.901446 0.894557 5.919054 -11.882748 21.577156 -3.030057 0.725242 4.422644 -1.234167 -17.705924 -57.146093 16.382100 7.125000 0.000000 0.000000 92.573600 77.938700 104.956300 
17.782098 17.892296 22.689436 175.260532 -2.524126 -153.954299 9.887620 1.590364 -1.669534 -33.129813 -19.827052 -16.750745 -0.736060 4.912916 10.973994 -0.594880 -8.784430 -15.147566 2.643300 -10.093900 -29.281300 -13.976424 -3.081553 -1.692334 27.855884 17.172137 -16.954994 0.887876 -3.816412 8.672704 -0.946348 3.431958 -19.704199 -0.955700 6.225300 -17.439700 -8.606353 -1.579796 -27.574048 1.133115 -0.536788 -5.094905 1.348580 -1.699762 15.935043 -9.766172 -0.730902 -6.600334 11.343541 -2.590726 8.509801 1.670100 -0.962600 1.036900 15.746700 -1.754080 0.484650 -105.020122 -5.954730 19.008950 11.671276 -12.934077 -1.636431 -1.949964 1.089620 5.484294 22.755808 -11.457352 -5.603800 -7.125000 0.000000 0.000000 -1.688700 16.519700 1.139300 -10.822629 -0.464173 -0.130031 98.932485 0.961991 6.136499 -11.983770 21.761706 -3.110117 0.791965 4.518977 -1.369268 -19.893027 -58.636460 18.662400 7.125000 0.000000 0.000000 101.719200 78.068700 113.900100 
17.781989 17.890111 22.687689 175.296915 -2.515902 -153.963841 9.885310 1.588688 -1.666910 -33.081719 -19.862156 -16.710824 -0.742370 4.893602 10.927678 -0.575879 -8.712675 -15.205700 2.679200 -10.156700 -29.485500 -13.974401 -3.080850 -1.689003 27.899100 17.177182 -16.956688 0.887558 -3.826488 8.698155 -0.956937 3.491732 -19.805215 -0.964800 6.254100 -17.523300 -8.544300 -1.564319 -27.570850 1.132271 -0.547094 -5.111016 1.296843 -1.699091 15.875075 -9.699565 -0.766276 -6.578545 11.326514 -2.638967 8.611289 1.648900 -0.979200 1.067700 15.765428 -1.747544 0.476142 -105.078640 -5.919359 19.304014 11.779172 -13.106979 -1.678947 -1.941719 1.072831 5.347902 22.690171 -11.468498 -5.584100 -7.125000 0.000000 0.000000 -1.742500 16.527800 1.175400 -10.840961 -0.456532 -0.130127 98.956097 0.845682 6.447976 -12.140049 22.037292 -3.216635 0.852478 4.609644 -1.523164 -22.176668 -60.008425 21.049200 7.125000 0.000000 0.000000 110.263700 77.910300 122.244300 
17.781224 17.887272 22.687689 175.312426 -2.437025 -153.930161 9.885078 1.585469 -1.671952 -33.071581 -19.829214 -16.755077 -0.746604 4.887402 10.903380 -0.565843 -8.683113 -15.257863 2.722100 -10.230900 -29.727800 -13.978666 -3.074479 -1.679322 27.882446 17.241028 -17.018898 0.887802 -3.841121 8.711971 -0.951849 3.489999 -19.777990 -1.009700 6.393600 -17.930800 -8.523923 -1.535840 -27.630990 1.130685 -0.519719 -5.115869 1.290192 -1.690380 15.871252 -9.660921 -0.814365 -6.597213 11.288115 -2.690386 8.687011 1.624100 -0.999200 1.096900 15.774877 -1.746345 0.467896 -105.159231 -5.953233 19.679162 11.863445 -13.234704 -1.712929 -1.919176 1.033852 4.983352 22.409543 -11.359484 -5.447600 -7.125000 0.000000 0.000000 -1.951600 16.702500 1.309100 -10.848990 -0.444700 -0.130445 98.892231 0.816781 6.946467 -12.251847 22.244935 -3.305931 0.880820 4.718034 -2.104193 -24.718290 -61.353612 23.713400 7.125000 0.000000 0.000000 118.441100 77.485600 130.213300 
17.781334 17.889019 22.690419 175.374751 -2.434158 -153.879320 9.888572 1.574074 -1.679887 -32.967790 -19.859244 -16.836644 -0.749720 4.898451 10.914435 -0.556198 -8.627059 -15.265750 2.836600 -10.425700 -30.366500 -13.990367 -3.064739 -1.665147 27.927370 17.357704 -17.095007 0.891680 -3.868567 8.745108 -0.948088 3.416100 -19.763810 -0.965400 6.255800 -17.528600 -8.454698 -1.523174 -27.689286 1.146967 -0.530688 -5.114549 1.295290 -1.692509 15.901066 -9.743189 -0.793274 -6.589728 11.344769 -2.672803 8.624761 1.662200 -0.994700 1.076000 15.780174 -1.765685 0.462740 -105.260976 -6.038495 19.984258 11.931804 -13.337937 -1.741774 -1.900211 1.019999 4.829778 22.216120 -11.369054 -5.395300 -7.125000 0.000000 0.000000 -2.101800 16.720600 1.409200 -10.855389 -0.442954 -0.131299 98.852733 0.946047 7.297984 -12.337499 22.407064 -3.386573 0.919773 4.835689 -2.518868 -27.521924 -62.736735 26.668200 7.125000 0.000000 0.000000 126.047800 76.765900 137.641000 
17.785156 17.889238 22.694023 175.425284 -2.522593 -153.815971 9.891142 1.564199 -1.683906 -32.847988 -19.878520 -16.956004 -0.747081 4.922327 10.955745 -0.568527 -8.669335 -15.227854 2.879300 -10.497100 -30.601900 -13.998136 -3.058098 -1.654357 28.004308 17.412280 -17.173145 0.896359 -3.891417 8.772483 -0.951467 3.356556 -19.809480 -0.903000 6.055900 -16.946700 -8.425017 -1.556275 -27.716514 1.165213 -0.591992 -5.124521 1.301157 -1.717150 15.893983 -9.772038 -0.777435 -6.581526 11.396031 -2.663818 8.598099 1.686700 -0.991900 1.067400 15.797112 -1.771931 0.455110 -105.320518 -6.039436 20.349515 12.042258 -13.516881 -1.788099 -1.890433 1.009589 4.723689 22.147268 -11.429208 -5.398400 -7.125000 0.000000 0.000000 -2.161100 16.670200 1.451400 -10.863824 -0.442426 -0.131184 98.899600 1.039978 7.336501 -12.412696 22.550700 -3.458757 0.987088 4.939215 -2.487682 -30.281927 -63.931793 29.574800 7.125000 0.000000 0.000000 132.026100 75.951300 143.456200 
17.788651 17.886616 22.694788 175.449486 -2.586428 -153.827377 9.888237 1.566338 -1.679341 -32.798189 -19.882695 -16.950551 -0.743648 4.924825 10.966735 -0.583438 -8.747859 -15.213085 2.823800 -10.404200 -30.295800 -14.002086 -3.062058 -1.657280 28.096958 17.381997 -17.117299 0.899477 -3.867732 8.723714 -0.947842 3.307825 -19.761640 -0.935300 6.160400 -17.250600 -8.427313 -1.583664 -27.666830 1.177509 -0.636350 -5.135249 1.316431 -1.736664 15.848431 -9.675780 -0.839263 -6.593304 11.319938 -2.729834 8.683934 1.634800 -1.018900 1.098400 15.817248 -1.761764 0.445627 -105.365080 -6.029167 20.719879 12.149786 -13.689825 -1.834203 -1.881644 1.001189 4.440130 22.057785 -11.562751 -5.430800 -7.125000 0.000000 0.000000 -2.240100 16.534500 1.511100 -10.868030 -0.424475 -0.130104 98.929077 1.065359 7.427668 -12.482959 22.688111 -3.525675 1.045081 5.047002 -2.540171 -33.173072 -65.019466 32.614500 7.125000 0.000000 0.000000 137.028800 75.061400 148.291700 
17.788869 17.885743 22.694023 175.493443 -2.584980 -153.875582 9.884347 1.569915 -1.675537 -32.756230 -19.897572 -16.874394 -0.744418 4.914308 10.955536 -0.578225 -8.742383 -15.242657 2.718400 -10.224700 -29.707400 -14.005230 -3.065227 -1.659033 28.179575 17.376352 -17.054626 0.899582 -3.860476 8.719856 -0.944958 3.296837 -19.724017 -0.965700 6.256900 -17.531600 -8.376040 -1.571687 -27.603029 1.182860 -0.646245 -5.142462 1.298234 -1.737683 15.801591 -9.561159 -0.927112 -6.631926 11.228947 -2.823245 8.758315 1.573800 -1.060500 1.131700 15.829462 -1.752764 0.436907 -105.408250 -6.048727 21.118865 12.205899 -13.774012 -1.860541 -1.872832 0.996812 4.174536 21.943206 -11.673539 -5.448300 -7.125000 0.000000 0.000000 -2.335000 16.422100 1.580900 -10.871444 -0.403667 -0.131263 98.955223 1.103803 7.564541 -12.544561 22.811778 -3.585737 1.104398 5.157156 -2.528433 -36.174497 -66.043718 35.770200 7.125000 0.000000 0.000000 141.221500 74.103800 152.335200 
17.788433 17.884869 22.691184 175.535861 -2.550166 -153.899178 9.883091 1.571660 -1.677127 -32.715105 -19.890495 -16.835892 -0.748318 4.907947 10.946975 -0.559674 -8.659969 -15.275798 2.821100 -10.399700 -30.280900 -14.009070 -3.063756 -1.657986 28.233022 17.418198 -17.002538 0.901908 -3.848788 8.694605 -0.944985 3.274992 -19.718018 -0.953600 6.218700 -17.420300 -8.316836 -1.554190 -27.622715 1.181093 -0.637850 -5.135023 1.260198 -1.735275 15.833394 -9.478152 -0.987892 -6.706107 11.150062 -2.875365 8.832668 1.526900 -1.081100 1.169500 15.836982 -1.747409 0.432017 -105.436885 -6.110413 21.451863 12.250901 -13.844523 -1.884877 -1.832032 0.991346 4.134196 21.574137 -11.709915 -5.359900 -7.125000 0.000000 0.000000 -2.621500 16.423300 1.775300 -10.878382 -0.385858 -0.132111 99.014158 1.169785 7.676021 -12.636727 22.976194 -3.654606 1.170299 5.261411 -2.355205 -39.179986 -66.997202 38.929600 7.125000 0.000000 0.000000 144.631500 73.123300 155.628100 
